<svg width="55" height="49" viewBox="0 0 55 49" fill="none" xmlns="http://www.w3.org/2000/svg">
<rect width="55" height="49" fill="white"/>
<path d="M45.0742 13.3075C44.962 13.0003 44.7437 12.7326 44.4504 12.5427C44.1572 12.3528 43.804 12.2503 43.4414 12.25H39.5312V6.89062C39.5312 6.04365 38.7632 5.35938 37.8125 5.35938H17.1875C16.2368 5.35938 15.4688 6.04365 15.4688 6.89062V12.25H11.5586C11.1958 12.2496 10.8422 12.3517 10.5488 12.5418C10.2554 12.7318 10.0372 12.9999 9.92578 13.3075L6.01562 24.0215V42.1094C6.01562 42.9563 6.78369 43.6406 7.73438 43.6406H47.2656C48.2163 43.6406 48.9844 42.9563 48.9844 42.1094V24.0215L45.0742 13.3075ZM35.4492 30.0508C35.4492 30.2613 35.2559 30.4336 35.0195 30.4336H29.2188V35.6016C29.2188 35.8121 29.0254 35.9844 28.7891 35.9844H26.2109C25.9746 35.9844 25.7812 35.8121 25.7812 35.6016V30.4336H19.9805C19.7441 30.4336 19.5508 30.2613 19.5508 30.0508V27.7539C19.5508 27.5434 19.7441 27.3711 19.9805 27.3711H25.7812V22.2031C25.7812 21.9926 25.9746 21.8203 26.2109 21.8203H28.7891C29.0254 21.8203 29.2188 21.9926 29.2188 22.2031V27.3711H35.0195C35.2559 27.3711 35.4492 27.5434 35.4492 27.7539V30.0508ZM35.6641 12.25H19.3359V8.80469H35.6641V12.25Z" fill="#B3B2B2"/>
</svg>