<svg width="49" height="60" viewBox="0 0 49 60" fill="none" xmlns="http://www.w3.org/2000/svg">
<g id="calendar-week-solid 1" clip-path="url(#clip0_47_254)">
<path id="Vector" d="M14 0C15.9359 0 17.5 1.67578 17.5 3.75V7.5H31.5V3.75C31.5 1.67578 33.0641 0 35 0C36.9359 0 38.5 1.67578 38.5 3.75V7.5H43.75C46.6484 7.5 49 10.0195 49 13.125V18.75H0V13.125C0 10.0195 2.35156 7.5 5.25 7.5H10.5V3.75C10.5 1.67578 12.0641 0 14 0ZM0 22.5H49V54.375C49 57.4805 46.6484 60 43.75 60H5.25C2.35156 60 0 57.4805 0 54.375V22.5ZM8.75 30C7.7875 30 7 30.8438 7 31.875V39.375C7 40.4062 7.7875 41.25 8.75 41.25H40.25C41.2125 41.25 42 40.4062 42 39.375V31.875C42 30.8438 41.2125 30 40.25 30H8.75Z" fill="#B3B2B2"/>
</g>
<defs>
<clipPath id="clip0_47_254">
<rect width="49" height="60" fill="white"/>
</clipPath>
</defs>
</svg>




