<svg width="51" height="42" viewBox="0 0 51 42" fill="none" xmlns="http://www.w3.org/2000/svg">
<path id="Vector" d="M50.9866 20.959C50.9866 22.4355 49.6584 23.5922 48.1531 23.5922H45.3195L45.3815 36.7336C45.3815 36.9551 45.3638 37.1766 45.3372 37.398V38.7188C45.3372 40.5316 43.7522 42 41.7952 42H40.3784C40.281 42 40.1836 42 40.0862 41.9918C39.9623 42 39.8383 42 39.7143 42H36.8365H34.7113C32.7543 42 31.1693 40.5316 31.1693 38.7188V36.75V31.5C31.1693 30.048 29.9031 28.875 28.3357 28.875H22.6686C21.1013 28.875 19.835 30.048 19.835 31.5V36.75V38.7188C19.835 40.5316 18.25 42 16.2931 42H14.1679H11.3432C11.2103 42 11.0775 41.9918 10.9447 41.9836C10.8384 41.9918 10.7322 42 10.6259 42H9.20912C7.25218 42 5.66715 40.5316 5.66715 38.7188V29.5312C5.66715 29.4574 5.66715 29.3754 5.676 29.3016V23.5922H2.83357C1.23969 23.5922 0 22.4438 0 20.959C0 20.2207 0.265648 19.5645 0.885492 18.9902L23.5895 0.65625C24.2094 0.0820312 24.9177 0 25.5376 0C26.1574 0 26.8658 0.164062 27.3971 0.574219L50.0126 18.9902C50.721 19.5645 51.0752 20.2207 50.9866 20.959Z" fill="black"/>
</svg>
