<svg width="40" height="47" viewBox="0 0 40 47" fill="none" xmlns="http://www.w3.org/2000/svg">
<g id="clipboard-solid 1" clip-path="url(#clip0_47_611)">
<path id="Vector" d="M20 0C15.6458 0 11.9375 2.45098 10.5729 5.875H6.66667C2.98958 5.875 0 8.50957 0 11.75V41.125C0 44.3654 2.98958 47 6.66667 47H33.3333C37.0104 47 40 44.3654 40 41.125V11.75C40 8.50957 37.0104 5.875 33.3333 5.875H29.4271C28.0625 2.45098 24.3542 0 20 0ZM20 5.875C20.8841 5.875 21.7319 6.18449 22.357 6.73537C22.9821 7.28626 23.3333 8.03343 23.3333 8.8125C23.3333 9.59157 22.9821 10.3387 22.357 10.8896C21.7319 11.4405 20.8841 11.75 20 11.75C19.1159 11.75 18.2681 11.4405 17.643 10.8896C17.0179 10.3387 16.6667 9.59157 16.6667 8.8125C16.6667 8.03343 17.0179 7.28626 17.643 6.73537C18.2681 6.18449 19.1159 5.875 20 5.875ZM11.6667 17.625H28.3333C29.25 17.625 30 18.2859 30 19.0938C30 19.9016 29.25 20.5625 28.3333 20.5625H11.6667C10.75 20.5625 10 19.9016 10 19.0938C10 18.2859 10.75 17.625 11.6667 17.625Z" fill="#B3B2B2" />
</g>
<defs>
<clipPath id="clip0_47_611">
<rect width="40" height="47" fill="white"/>
</clipPath>
</defs>
</svg>
