<svg width="60" height="51" viewBox="0 0 60 51" fill="none" xmlns="http://www.w3.org/2000/svg">
<g id="users-solid" clip-path="url(#clip0_1_160)">
<path id="Vector" d="M13.5 0C15.4891 0 17.3968 0.839562 18.8033 2.33399C20.2098 3.82842 21 5.85531 21 7.96875C21 10.0822 20.2098 12.1091 18.8033 13.6035C17.3968 15.0979 15.4891 15.9375 13.5 15.9375C11.5109 15.9375 9.60322 15.0979 8.1967 13.6035C6.79018 12.1091 6 10.0822 6 7.96875C6 5.85531 6.79018 3.82842 8.1967 2.33399C9.60322 0.839562 11.5109 0 13.5 0ZM48 0C49.9891 0 51.8968 0.839562 53.3033 2.33399C54.7098 3.82842 55.5 5.85531 55.5 7.96875C55.5 10.0822 54.7098 12.1091 53.3033 13.6035C51.8968 15.0979 49.9891 15.9375 48 15.9375C46.0109 15.9375 44.1032 15.0979 42.6967 13.6035C41.2902 12.1091 40.5 10.0822 40.5 7.96875C40.5 5.85531 41.2902 3.82842 42.6967 2.33399C44.1032 0.839562 46.0109 0 48 0ZM0 29.7533C0 23.8863 4.48125 19.125 10.0031 19.125H14.0062C15.4969 19.125 16.9125 19.4736 18.1875 20.0912C18.0656 20.8084 18.0094 21.5555 18.0094 22.3125C18.0094 26.1176 19.5844 29.5342 22.0687 31.875C22.05 31.875 22.0312 31.875 22.0031 31.875H1.99687C0.9 31.875 0 30.9188 0 29.7533ZM37.9969 31.875C37.9781 31.875 37.9594 31.875 37.9313 31.875C40.425 29.5342 41.9906 26.1176 41.9906 22.3125C41.9906 21.5555 41.925 20.8184 41.8125 20.0912C43.0875 19.4637 44.5031 19.125 45.9938 19.125H49.9969C55.5187 19.125 60 23.8863 60 29.7533C60 30.9287 59.1 31.875 58.0031 31.875H37.9969ZM21 22.3125C21 19.7764 21.9482 17.3441 23.636 15.5508C25.3239 13.7575 27.6131 12.75 30 12.75C32.3869 12.75 34.6761 13.7575 36.364 15.5508C38.0518 17.3441 39 19.7764 39 22.3125C39 24.8486 38.0518 27.2809 36.364 29.0742C34.6761 30.8675 32.3869 31.875 30 31.875C27.6131 31.875 25.3239 30.8675 23.636 29.0742C21.9482 27.2809 21 24.8486 21 22.3125ZM12 48.3404C12 41.0092 17.5969 35.0625 24.4969 35.0625H35.5031C42.4031 35.0625 48 41.0092 48 48.3404C48 49.8047 46.8844 51 45.4969 51H14.5031C13.125 51 12 49.8146 12 48.3404Z" fill="#B3B2B2"/>
</g>
<defs>
<clipPath id="clip0_1_160">
<rect width="60" height="51" fill="white"/>
</clipPath>
</defs>
</svg>
